<svg xmlns="http://www.w3.org/2000/svg" xmlns:xlink="http://www.w3.org/1999/xlink" viewBox="0 0 113.87 97.2"><defs><style>.cls-1{fill:#070808;stroke:#231f20;}.cls-1,.cls-2,.cls-3,.cls-4,.cls-5,.cls-6,.cls-7{stroke-miterlimit:10;}.cls-2,.cls-3,.cls-4,.cls-5,.cls-6,.cls-7{stroke-width:0.25px;}.cls-2{fill:url(#linear-gradient);stroke:url(#linear-gradient-2);}.cls-3{fill:url(#linear-gradient-3);stroke:url(#linear-gradient-4);}.cls-4{fill:url(#linear-gradient-5);stroke:url(#linear-gradient-6);}.cls-5{fill:url(#linear-gradient-7);stroke:url(#linear-gradient-8);}.cls-6{fill:url(#linear-gradient-9);stroke:url(#linear-gradient-10);}.cls-7{font-size:21px;fill:#231f20;stroke:#000;font-family:Century751BT-SemiBoldItalicB, Century751 SeBd BT;font-weight:600;font-style:italic;}.cls-8{letter-spacing:0.02em;}.cls-9{letter-spacing:-0.05em;}.cls-10{letter-spacing:0em;}</style><linearGradient id="linear-gradient" x1="73.6" y1="16.98" x2="81.34" y2="16.98" gradientUnits="userSpaceOnUse"><stop offset="0.1" stop-color="#c5d32d" stop-opacity="0.8"/><stop offset="0.25" stop-color="#b9d031" stop-opacity="0.82"/><stop offset="0.47" stop-color="#96c73c" stop-opacity="0.87"/><stop offset="0.57" stop-color="#85c341" stop-opacity="0.9"/><stop offset="0.79" stop-color="#85c341" stop-opacity="0.95"/><stop offset="0.94" stop-color="#85c341"/></linearGradient><linearGradient id="linear-gradient-2" x1="73.47" y1="17.05" x2="81.47" y2="17.05" gradientUnits="userSpaceOnUse"><stop offset="0.09" stop-color="#85c341"/><stop offset="0.53" stop-color="#c5d32d"/><stop offset="0.63" stop-color="#bdd12f"/><stop offset="0.79" stop-color="#a8cc36"/><stop offset="0.97" stop-color="#85c341"/><stop offset="0.98" stop-color="#85c341"/></linearGradient><linearGradient id="linear-gradient-3" x1="62.03" y1="27.69" x2="69.77" y2="27.69" xlink:href="#linear-gradient"/><linearGradient id="linear-gradient-4" x1="61.9" y1="27.76" x2="69.9" y2="27.76" xlink:href="#linear-gradient-2"/><linearGradient id="linear-gradient-5" x1="291.32" y1="305.02" x2="298.19" y2="305.02" xlink:href="#linear-gradient"/><linearGradient id="linear-gradient-6" x1="291.19" y1="305.02" x2="298.31" y2="305.02" xlink:href="#linear-gradient-2"/><linearGradient id="linear-gradient-7" x1="39.39" y1="32.81" x2="46.62" y2="32.81" xlink:href="#linear-gradient"/><linearGradient id="linear-gradient-8" x1="39.26" y1="32.86" x2="46.75" y2="32.86" xlink:href="#linear-gradient-2"/><linearGradient id="linear-gradient-9" x1="27.56" y1="49.27" x2="35.13" y2="49.27" xlink:href="#linear-gradient"/><linearGradient id="linear-gradient-10" x1="27.43" y1="49.35" x2="35.26" y2="49.35" xlink:href="#linear-gradient-2"/></defs><title>website logo</title><g id="Layer_3" data-name="Layer 3"><polygon class="cls-1" points="18.96 68.55 43.47 53.23 54.02 66.51 93.52 27.19 97.09 29.74 98.28 18.59 86.71 19.19 89.43 22.25 54.62 57.57 43.13 44.38 18.96 68.55"/><polygon class="cls-2" points="81.34 27.27 73.69 33.83 73.6 0.13 81.34 0.13 81.34 27.27"/><polygon class="cls-3" points="69.77 38.14 62.11 44.79 62.02 10.59 69.77 10.59 69.77 38.14"/><path class="cls-4" d="M298.15,313.32c.34-.09-1.87,3.83-3.06,3.83s-4.09-4.43-3.75-3.83V292.89h6.81Z" transform="translate(-240.47 -263.92)"/><polygon class="cls-5" points="46.54 42.68 42.96 41.4 39.39 43.7 39.39 21.91 46.62 21.91 46.54 42.68"/><polygon class="cls-6" points="35.13 49.74 27.56 56.3 27.56 42.25 35.13 42.25 35.13 49.74"/><text class="cls-7" transform="translate(0.14 92.12)">Ea<tspan class="cls-8" x="26.29" y="0">r</tspan><tspan x="35.92" y="0">no</tspan><tspan class="cls-9" x="60.03" y="0">P</tspan><tspan class="cls-10" x="72.15" y="0">edia</tspan></text></g></svg>